<svg width="48" height="48" viewBox="0 0 48 48" fill="none" xmlns="http://www.w3.org/2000/svg">
<path d="M21 5.99949C18.711 5.99949 16.575 6.63849 14.754 7.75149C14.5658 6.74473 14.2227 5.7732 13.737 4.87149C16.0209 3.60759 18.5951 2.96156 21.2051 2.99725C23.8152 3.03294 26.3707 3.74912 28.6192 5.07499C30.8676 6.40086 32.7312 8.29054 34.0257 10.5572C35.3201 12.8239 36.0007 15.3892 36 17.9995H43.503C44.696 18.0003 45.8398 18.4747 46.6831 19.3186C47.5263 20.1624 48 21.3065 48 22.4995V40.4995C48 41.693 47.5259 42.8376 46.682 43.6815C45.8381 44.5254 44.6935 44.9995 43.5 44.9995H25.5C24.3066 44.9995 23.162 44.5254 22.318 43.6815C21.4741 42.8376 21 41.693 21 40.4995V32.9995C18.9132 33.0021 16.8489 32.5678 14.94 31.7245C14.979 30.7045 15 29.6335 15 28.4995V28.3945C16.764 29.4145 18.813 29.9995 21 29.9995V22.4995C21 21.306 21.4741 20.1614 22.318 19.3175C23.162 18.4736 24.3066 17.9995 25.5 17.9995H33C33 14.8169 31.7357 11.7646 29.4853 9.51421C27.2349 7.26377 24.1826 5.99949 21 5.99949ZM35.7 20.9995C35.1099 23.8812 33.6866 26.5262 31.6066 28.6061C29.5267 30.6861 26.8817 32.1094 24 32.6995V40.4995C24 40.8973 24.1581 41.2788 24.4394 41.5602C24.7207 41.8415 25.1022 41.9995 25.5 41.9995H43.5C43.8978 41.9995 44.2794 41.8415 44.5607 41.5602C44.842 41.2788 45 40.8973 45 40.4995V22.4995C45 22.1017 44.842 21.7201 44.5607 21.4388C44.2794 21.1575 43.8978 20.9995 43.5 20.9995H35.7ZM32.622 20.9995H25.5C25.1022 20.9995 24.7207 21.1575 24.4394 21.4388C24.1581 21.7201 24 22.1017 24 22.4995V29.6215C26.0755 29.0838 27.9693 28.0008 29.4853 26.4848C31.0014 24.9688 32.0843 23.0749 32.622 20.9995Z" fill="#FFFFFF"/>
<path d="M7.74 0.37488C7.98951 0.592307 8.16011 0.886147 8.22522 1.21063C8.29034 1.53512 8.24631 1.87202 8.1 2.16888C8.0746 2.25665 8.06148 2.34751 8.061 2.43888C8.061 2.62788 8.109 2.98788 8.562 3.43788C8.781 3.65688 8.949 3.81288 9.132 3.98388C9.282 4.12188 9.441 4.26588 9.642 4.46388C10.032 4.83588 10.443 5.27388 10.812 5.82288C11.577 6.97188 12 8.40888 12 10.4999C12 13.0589 11.052 15.2399 9.573 16.5779L9.765 16.7999C10.605 17.8319 11.094 19.1699 11.4 20.4899C12 23.0999 12 26.2379 12 28.4249V28.4999C12 36.8609 10.863 41.6039 9.612 44.3159C8.982 45.6809 8.313 46.5509 7.734 47.0969C7.4986 47.3227 7.23904 47.5219 6.96 47.6909C6.83224 47.7678 6.69886 47.835 6.561 47.8919C6.561 47.8919 6.222 47.9999 6 47.9999C5.778 47.9999 5.439 47.8919 5.439 47.8919C5.29964 47.8383 5.16598 47.771 5.04 47.6909C4.76096 47.5219 4.5014 47.3227 4.266 47.0969C3.687 46.5479 3.018 45.6809 2.388 44.3159C1.137 41.6039 0 36.8609 0 28.4999V28.4249C0 26.2349 1.3411e-07 23.0999 0.6 20.4899C0.906 19.1699 1.395 17.8319 2.235 16.7999C2.295 16.7249 2.361 16.6499 2.427 16.5779C0.948 15.2399 0 13.0589 0 10.4999C0 9.52188 0.261 8.35488 0.621 7.27788C0.981 6.19788 1.485 5.08188 2.067 4.18188C2.76 3.01188 3.735 2.03088 4.491 1.37088C4.90547 1.00637 5.33802 0.662935 5.787 0.34188L5.877 0.28188L5.904 0.260879L5.913 0.25488L5.919 0.25188C6.19409 0.06851 6.52205 -0.0188432 6.8519 0.00340017C7.18176 0.0256436 7.49502 0.156237 7.743 0.37488H7.74ZM6.009 14.9999C7.158 14.9969 9 13.7099 9 10.4999C9 8.84088 8.673 8.02788 8.313 7.48788C8.09412 7.17248 7.84164 6.88178 7.56 6.62088L7.188 6.27288C6.945 6.04488 6.66 5.78088 6.438 5.56188C6.10989 5.23718 5.82822 4.8687 5.601 4.46688C5.21913 4.8684 4.88307 5.31112 4.599 5.78688C4.179 6.43188 3.771 7.31688 3.468 8.22888C3.156 9.15888 3 9.98088 3 10.4999C3 13.7159 4.845 14.9999 6 14.9999H6.006H6.009ZM4.56 18.6959C4.137 19.2149 3.78 20.0429 3.525 21.1649C3.006 23.4089 3 26.2289 3 28.4999C3 36.6389 4.113 40.8959 5.112 43.0589C5.442 43.7699 5.751 44.2439 6 44.5589C6.249 44.2439 6.561 43.7699 6.888 43.0589C7.887 40.8959 9 36.6389 9 28.4999C9 26.2289 8.994 23.4089 8.475 21.1649C8.217 20.0429 7.863 19.2149 7.44 18.6959C7.27453 18.4717 7.05694 18.2911 6.80604 18.1699C6.55515 18.0486 6.2785 17.9903 6 17.9999H5.994C5.71646 17.991 5.44092 18.0497 5.19111 18.1709C4.9413 18.2922 4.72471 18.4723 4.56 18.6959Z" fill="#FFFFFF"/>
</svg>
