<svg width="50" height="50" viewBox="0 0 50 50" fill="none" xmlns="http://www.w3.org/2000/svg">
<path d="M42.5 2.5H7.5C6.17392 2.5 4.90215 3.02678 3.96447 3.96447C3.02678 4.90215 2.5 6.17392 2.5 7.5V42.5C2.5 43.8261 3.02678 45.0979 3.96447 46.0355C4.90215 46.9732 6.17392 47.5 7.5 47.5H42.5C43.8261 47.5 45.0979 46.9732 46.0355 46.0355C46.9732 45.0979 47.5 43.8261 47.5 42.5V7.5C47.5 6.17392 46.9732 4.90215 46.0355 3.96447C45.0979 3.02678 43.8261 2.5 42.5 2.5Z" stroke="#EE4F3C" stroke-width="4" stroke-linecap="round" stroke-linejoin="round"/>
<path d="M12.5 12.5H37.5" stroke="#EE4F3C" stroke-width="4" stroke-linecap="round" stroke-linejoin="round"/>
<path d="M12.5 25H37.5" stroke="#EE4F3C" stroke-width="4" stroke-linecap="round" stroke-linejoin="round"/>
<path d="M12.5 37.5H27.5" stroke="#EE4F3C" stroke-width="4" stroke-linecap="round" stroke-linejoin="round"/>
</svg>
