<svg width="30" height="30" fill="none" xmlns="http://www.w3.org/2000/svg"><path d="M15-.031C6.712-.031-.033 6.71-.033 15c0 8.29 6.745 15.032 15.033 15.032S30.033 23.29 30.033 15C30.033 6.711 23.288-.03 15-.03Zm0 29.062c-7.736 0-14.03-6.294-14.03-14.03C.97 7.263 7.264.97 15 .97S29.03 7.264 29.03 15c0 7.737-6.294 14.031-14.03 14.031Z" fill="rgba(93, 93, 97, 1)"/><path d="M18.281 6.563H15.78c-3.186-.032-3.592 1.94-3.592 4.073v1.552H10.78a.417.417 0 0 0-.469.468v2.813a.416.416 0 0 0 .47.469h1.405v7.03a.42.42 0 0 0 .472.47h2.864c.277.031.5-.193.413-.47l.002-7.03h2.343a.416.416 0 0 0 .469-.47v-2.812a.418.418 0 0 0-.469-.469h-2.346l.002-1.406c.091-.599.091-.501.647-.469h1.678c.13-.028.269-.013.366-.107.098-.095.154-.224.121-.361V7.03a.417.417 0 0 0-.468-.468Zm-.501 2.76-1.176-.045c-1.456 0-1.578.79-1.578 1.599l-.003 1.777a.502.502 0 0 0 .5.502h2.29v1.811h-2.288a.501.501 0 0 0-.502.5V22.5h-1.898v-7.031c0-.277-.188-.5-.466-.5H11.25v-1.812h1.41a.502.502 0 0 0 .353-.146c.094-.095.111-.222.111-.356v-2.02c0-2.102.425-3.103 2.655-3.103h2v1.79Z" fill="rgba(93, 93, 97, 1)"/></svg>
