<svg width="30" height="30" fill="none" xmlns="http://www.w3.org/2000/svg"><path d="M18.295 11.206a2.97 2.97 0 0 0-1.474.362c-.06-.21-.254-.363-.482-.317H13.54c-.276-.046-.5.178-.415.468v10.313c-.085.262.139.487.415.469h2.798c.276.018.5-.207.5-.483v-6.233c-.002-.003-.012-.3.177-.506.15-.163.41-.247.77-.247.597 0 .864.245.963.793v6.193c-.098.276.126.501.402.483H22.1c.276.018.5-.207.4-.483v-6.402c.1-3.255-2.22-4.41-4.205-4.41Zm3.303 10.357h-1.946v-5.738c0-1.108-.715-1.794-1.866-1.794-.65 0-1.157.191-1.505.568-.485.525-.448 1.19-.343 1.34v5.624h-1.896v-9.356h1.796v.315a.5.5 0 0 0 .806.396l.132-.1c.38-.3.772-.61 1.52-.61.775 0 3.303.246 3.303 3.41v5.945ZM10.313 6.531a1.908 1.908 0 0 0-1.907 1.907c0 1.052.855 1.907 1.906 1.907a1.909 1.909 0 0 0 1.907-1.907 1.908 1.908 0 0 0-1.906-1.907Zm0 2.813a.907.907 0 0 1-.906-.906c0-.499.407-.906.905-.906.5 0 .906.407.906.906a.907.907 0 0 1-.905.906ZM11.651 11.204H8.87c-.277 0-.5.224-.432.515V22.03c-.069.263.155.488.432.469h2.782c.277.019.5-.206.5-.483V11.705a.5.5 0 0 0-.5-.5Zm-.401 10.358H9.37v-9.356h1.88v9.357Z" fill="rgba(93, 93, 97, 1)"/><path d="M15-.031C6.71-.031-.032 6.71-.032 15c0 8.29 6.743 15.032 15.032 15.032 8.29 0 15.032-6.742 15.032-15.032C30.032 6.711 23.289-.03 15-.03Zm0 29.062c-7.736 0-14.03-6.294-14.03-14.03C.97 7.263 7.263.97 15 .97S29.03 7.264 29.03 15c0 7.737-6.294 14.031-14.03 14.031Z" fill="rgba(93, 93, 97, 1)"/></svg>