<svg width="12" height="11" viewBox="0 0 12 11" fill="none" xmlns="http://www.w3.org/2000/svg">
<path d="M10.8322 3.84398L7.6765 3.38535L6.26581 0.52544C6.22728 0.447137 6.16389 0.383749 6.08559 0.345219C5.88921 0.248273 5.65057 0.329062 5.55238 0.52544L4.14169 3.38535L0.985977 3.84398C0.898974 3.85641 0.819429 3.89742 0.758527 3.95957C0.684899 4.03524 0.644328 4.13705 0.645726 4.24263C0.647124 4.3482 0.690378 4.4489 0.765984 4.5226L3.04919 6.74863L2.50977 9.89192C2.49712 9.96504 2.50521 10.0402 2.53313 10.109C2.56104 10.1777 2.60766 10.2373 2.6677 10.2809C2.72774 10.3245 2.7988 10.3504 2.87282 10.3557C2.94684 10.361 3.02085 10.3454 3.08647 10.3108L5.90909 8.82675L8.73172 10.3108C8.80878 10.3518 8.89826 10.3655 8.98402 10.3505C9.20029 10.3133 9.34571 10.1082 9.30842 9.89192L8.769 6.74863L11.0522 4.5226C11.1144 4.4617 11.1554 4.38215 11.1678 4.29515C11.2014 4.07764 11.0497 3.87629 10.8322 3.84398V3.84398Z" fill="#FF993B"/>
</svg>
