<svg width="30" height="30" fill="none" xmlns="http://www.w3.org/2000/svg"><path d="M15-.031C6.712-.031-.033 6.71-.033 15c0 8.29 6.745 15.032 15.033 15.032S30.033 23.29 30.033 15C30.033 6.711 23.288-.03 15-.03Zm0 29.062c-7.736 0-14.03-6.294-14.03-14.03C.97 7.263 7.264.97 15 .97S29.03 7.264 29.03 15c0 7.737-6.294 14.031-14.03 14.031Z" fill="rgba(93, 93, 97, 1)"/><path d="M23.244 10.356c.104-.192.19-.394.256-.603a.501.501 0 0 0-.732-.584c-.48.286-1 .498-1.543.631a3.58 3.58 0 0 0-5.978 2.8 8.27 8.27 0 0 1-5.376-2.98.502.502 0 0 0-.821.066 3.575 3.575 0 0 0-.062 3.488.59.59 0 0 0-.2.073.535.535 0 0 0-.248.451c0 1.064.473 2.041 1.236 2.705l-.033.033a.5.5 0 0 0-.1.485 3.578 3.578 0 0 0 2.047 2.218 5.75 5.75 0 0 1-3.193.542.511.511 0 0 0-.531.33.503.503 0 0 0 .201.59 9.226 9.226 0 0 0 4.987 1.463c5.794 0 9.257-4.707 9.257-9.256l-.001-.154a6.674 6.674 0 0 0 1.445-1.556.501.501 0 0 0-.61-.742Zm-1.636 1.645a.502.502 0 0 0-.208.433c.006.123.009.249.009.373 0 4.057-3.087 8.254-8.254 8.254a8.212 8.212 0 0 1-2.707-.457 6.631 6.631 0 0 0 2.855-1.303.502.502 0 0 0-.3-.896 2.58 2.58 0 0 1-2.057-1.089c.237-.016.47-.055.696-.116a.5.5 0 0 0-.034-.975 2.57 2.57 0 0 1-1.95-1.786c.249.063.505.1.76.108.22-.001.425-.136.494-.348a.5.5 0 0 0-.2-.57 2.574 2.574 0 0 1-1.07-2.76 9.266 9.266 0 0 0 6.157 2.786.51.51 0 0 0 .41-.179c.1-.12.138-.281.102-.435a2.578 2.578 0 0 1 4.39-2.35.502.502 0 0 0 .463.15c.155-.031.307-.067.458-.108a2.38 2.38 0 0 1-.211.141.502.502 0 0 0 .316.927l.171-.022c-.094.078-.19.152-.29.222Z" fill="rgba(93, 93, 97, 1)"/></svg>