<svg width="45" height="45" viewBox="0 0 45 45" fill="none" xmlns="http://www.w3.org/2000/svg">
  <path d="M40 22.5278C40 27.6204 38.308 31.8056 34.9241 35.0833C31.5402 38.3611 27.2184 40 21.9586 40C16.7172 40 12.4138 38.3611 9.04828 35.0833C5.68276 31.8056 4 27.6204 4 22.5278C4 17.4352 5.68276 13.2407 9.04828 9.94444C12.4322 6.64815 16.7356 5 21.9586 5C27.2184 5 31.5402 6.64815 34.9241 9.94444C38.308 13.2407 40 17.4352 40 22.5278ZM32.0828 22.75C32.0828 17.5833 31.2184 13.6481 29.4897 10.9444C27.7793 8.24074 25.269 6.88889 21.9586 6.88889C18.6851 6.88889 16.1931 8.24074 14.4828 10.9444C12.7724 13.6481 11.9172 17.6019 11.9172 22.8056C11.9172 27.6389 12.7816 31.3981 14.5103 34.0833C16.2391 36.7685 18.7218 38.1111 21.9586 38.1111C25.1402 38.1111 27.623 36.7778 29.4069 34.1111C31.1908 31.4444 32.0828 27.6574 32.0828 22.75Z" fill="#EE4F3C"/>
  </svg>
