<svg width="650" height="931" viewBox="0 0 650 931" fill="none" xmlns="http://www.w3.org/2000/svg">
<g style="mix-blend-mode:luminosity" opacity="0.05">
<path d="M325 606L325 668.5C325 723.728 280.228 768.5 225 768.5L162.5 768.5L162.5 706C162.5 650.772 207.272 606 262.5 606L325 606Z" fill="#FEC247"/>
<path d="M325 931L325 868.5C325 813.272 280.228 768.5 225 768.5L162.5 768.5L162.5 831C162.5 886.228 207.272 931 262.5 931L325 931Z" fill="#6B5ACC"/>
<path d="M162.5 768.5L162.5 831C162.5 886.228 117.728 931 62.5 931L-7.1031e-06 931L-4.37114e-06 868.5C-1.95703e-06 813.272 44.7715 768.5 100 768.5L162.5 768.5Z" fill="#21C1F3"/>
<path d="M162.5 768.5L162.5 706C162.5 650.772 117.728 606 62.5 606L7.1031e-06 606L4.37114e-06 668.5C1.95703e-06 723.728 44.7715 768.5 100 768.5L162.5 768.5Z" fill="#EE4F3C"/>
<path d="M650 606L650 668.5C650 723.728 605.228 768.5 550 768.5L487.5 768.5L487.5 706C487.5 650.772 532.272 606 587.5 606L650 606Z" fill="#FEC247"/>
<path d="M650 931L650 868.5C650 813.272 605.228 768.5 550 768.5L487.5 768.5L487.5 831C487.5 886.228 532.272 931 587.5 931L650 931Z" fill="#6B5ACC"/>
<path d="M487.5 768.5L487.5 831C487.5 886.228 442.728 931 387.5 931L325 931L325 868.5C325 813.272 369.772 768.5 425 768.5L487.5 768.5Z" fill="#21C1F3"/>
<path d="M487.5 768.5L487.5 706C487.5 650.772 442.728 606 387.5 606L325 606L325 668.5C325 723.728 369.772 768.5 425 768.5L487.5 768.5Z" fill="#EE4F3C"/>
</g>
<g style="mix-blend-mode:luminosity" opacity="0.05">
<path d="M325 283L325 345.5C325 400.728 280.228 445.5 225 445.5L162.5 445.5L162.5 383C162.5 327.772 207.272 283 262.5 283L325 283Z" fill="#FEC247"/>
<path d="M325 608L325 545.5C325 490.272 280.228 445.5 225 445.5L162.5 445.5L162.5 508C162.5 563.228 207.272 608 262.5 608L325 608Z" fill="#6B5ACC"/>
<path d="M162.5 445.5L162.5 508C162.5 563.228 117.728 608 62.5 608L-7.1031e-06 608L-4.37114e-06 545.5C-1.95703e-06 490.272 44.7715 445.5 100 445.5L162.5 445.5Z" fill="#21C1F3"/>
<path d="M162.5 445.5L162.5 383C162.5 327.772 117.728 283 62.5 283L7.1031e-06 283L4.37114e-06 345.5C1.95703e-06 400.728 44.7715 445.5 100 445.5L162.5 445.5Z" fill="#EE4F3C"/>
<path d="M650 283L650 345.5C650 400.728 605.228 445.5 550 445.5L487.5 445.5L487.5 383C487.5 327.772 532.272 283 587.5 283L650 283Z" fill="#FEC247"/>
<path d="M650 608L650 545.5C650 490.272 605.228 445.5 550 445.5L487.5 445.5L487.5 508C487.5 563.228 532.272 608 587.5 608L650 608Z" fill="#6B5ACC"/>
<path d="M487.5 445.5L487.5 508C487.5 563.228 442.728 608 387.5 608L325 608L325 545.5C325 490.272 369.772 445.5 425 445.5L487.5 445.5Z" fill="#21C1F3"/>
<path d="M487.5 445.5L487.5 383C487.5 327.772 442.728 283 387.5 283L325 283L325 345.5C325 400.728 369.772 445.5 425 445.5L487.5 445.5Z" fill="#EE4F3C"/>
</g>
<g style="mix-blend-mode:luminosity" opacity="0.05">
<path d="M325 -40L325 22.5C325 77.7285 280.228 122.5 225 122.5L162.5 122.5L162.5 60C162.5 4.77152 207.272 -40 262.5 -40L325 -40Z" fill="#FEC247"/>
<path d="M325 285L325 222.5C325 167.272 280.228 122.5 225 122.5L162.5 122.5L162.5 185C162.5 240.228 207.272 285 262.5 285L325 285Z" fill="#6B5ACC"/>
<path d="M162.5 122.5L162.5 185C162.5 240.228 117.728 285 62.5 285L-7.1031e-06 285L-4.37114e-06 222.5C-1.95703e-06 167.272 44.7715 122.5 100 122.5L162.5 122.5Z" fill="#21C1F3"/>
<path d="M162.5 122.5L162.5 60C162.5 4.77153 117.728 -40 62.5 -40L7.1031e-06 -40L4.37114e-06 22.5C1.95703e-06 77.7285 44.7715 122.5 100 122.5L162.5 122.5Z" fill="#EE4F3C"/>
<path d="M650 -40L650 22.5C650 77.7285 605.228 122.5 550 122.5L487.5 122.5L487.5 60C487.5 4.77152 532.272 -40 587.5 -40L650 -40Z" fill="#FEC247"/>
<path d="M650 285L650 222.5C650 167.272 605.228 122.5 550 122.5L487.5 122.5L487.5 185C487.5 240.228 532.272 285 587.5 285L650 285Z" fill="#6B5ACC"/>
<path d="M487.5 122.5L487.5 185C487.5 240.228 442.728 285 387.5 285L325 285L325 222.5C325 167.272 369.772 122.5 425 122.5L487.5 122.5Z" fill="#21C1F3"/>
<path d="M487.5 122.5L487.5 60C487.5 4.77153 442.728 -40 387.5 -40L325 -40L325 22.5C325 77.7285 369.772 122.5 425 122.5L487.5 122.5Z" fill="#EE4F3C"/>
</g>
</svg>
