<svg width="1920" height="750" viewBox="0 0 1920 750" fill="none" xmlns="http://www.w3.org/2000/svg">
<g opacity="0.05">
<path d="M372 372L286 372C230.772 372 186 327.229 186 272L186 186L272 186C327.229 186 372 230.772 372 286L372 372Z" fill="#FEC247"/>
<path d="M0 372L86 372C141.228 372 186 327.229 186 272L186 186L100 186C44.7715 186 1.23466e-05 230.772 7.51836e-06 286L0 372Z" fill="#6B5ACC"/>
<path d="M186 186L100 186C44.7716 186 0.000125984 141.228 0.000130813 85.9999L0.000138331 -7.72958e-05L86.0001 -6.97774e-05C141.229 -6.49492e-05 186 44.7715 186 99.9999L186 186Z" fill="#21C1F3"/>
<path d="M186 186L272 186C327.229 186 372 141.228 372 86L372 -1.42569e-05L286 -2.17753e-05C230.772 -2.66035e-05 186 44.7715 186 100L186 186Z" fill="#EE4F3C"/>
<path d="M1920.42 750L1834.42 750C1779.19 750 1734.42 705.229 1734.42 650L1734.42 564L1820.42 564C1875.65 564 1920.42 608.772 1920.42 664L1920.42 750Z" fill="#FEC247"/>
<path d="M1548.42 750L1634.42 750C1689.65 750 1734.42 705.229 1734.42 650L1734.42 564L1648.42 564C1593.19 564 1548.42 608.772 1548.42 664L1548.42 750Z" fill="#6B5ACC"/>
<path d="M1734.42 564L1648.42 564C1593.19 564 1548.42 519.229 1548.42 464L1548.42 378L1634.42 378C1689.65 378 1734.42 422.772 1734.42 478L1734.42 564Z" fill="#21C1F3"/>
<path d="M1734.42 564L1820.42 564C1875.65 564 1920.42 519.229 1920.42 464L1920.42 378L1834.42 378C1779.19 378 1734.42 422.772 1734.42 478L1734.42 564Z" fill="#EE4F3C"/>
<path d="M372 744L286 744C230.772 744 186 699.229 186 644L186 558L272 558C327.229 558 372 602.772 372 658L372 744Z" fill="#FEC247"/>
<path d="M6.10352e-05 744L86.0001 744C141.229 744 186 699.229 186 644L186 558L100 558C44.7716 558 7.33817e-05 602.772 6.85535e-05 658L6.10352e-05 744Z" fill="#6B5ACC"/>
<path d="M186 558L100 558C44.7716 558 6.49492e-05 513.229 6.97774e-05 458L7.72958e-05 372L86.0001 372C141.229 372 186 416.772 186 472L186 558Z" fill="#21C1F3"/>
<path d="M186 558L272 558C327.229 558 372 513.229 372 458L372 372L286 372C230.772 372 186 416.772 186 472L186 558Z" fill="#EE4F3C"/>
</g>
<g opacity="0.05">
<path d="M741.711 372L655.711 372C600.482 372 555.711 327.229 555.711 272L555.711 186L641.711 186C696.939 186 741.711 230.772 741.711 286L741.711 372Z" fill="#FEC247"/>
<path d="M369.711 372L455.711 372C510.939 372 555.711 327.229 555.711 272L555.711 186L469.711 186C414.482 186 369.711 230.772 369.711 286L369.711 372Z" fill="#6B5ACC"/>
<path d="M555.711 186L469.711 186C414.482 186 369.711 141.229 369.711 86.0002L369.711 0.000166845L455.711 0.000174363C510.939 0.000179191 555.711 44.7717 555.711 100L555.711 186Z" fill="#21C1F3"/>
<path d="M555.711 186L641.711 186C696.939 186 741.711 141.229 741.711 86.0002L741.711 0.000199366L655.711 0.000191848C600.482 0.00018702 555.711 44.7717 555.711 100L555.711 186Z" fill="#EE4F3C"/>
<path d="M741.711 744L655.711 744C600.482 744 555.711 699.229 555.711 644L555.711 558L641.711 558C696.939 558 741.711 602.772 741.711 658L741.711 744Z" fill="#FEC247"/>
<path d="M369.711 744L455.711 744C510.939 744 555.711 699.229 555.711 644L555.711 558L469.711 558C414.482 558 369.711 602.772 369.711 658L369.711 744Z" fill="#6B5ACC"/>
<path d="M555.711 558L469.711 558C414.482 558 369.711 513.229 369.711 458L369.711 372L455.711 372C510.939 372 555.711 416.772 555.711 472L555.711 558Z" fill="#21C1F3"/>
<path d="M555.711 558L641.711 558C696.939 558 741.711 513.229 741.711 458L741.711 372L655.711 372C600.482 372 555.711 416.772 555.711 472L555.711 558Z" fill="#EE4F3C"/>
</g>
<g opacity="0.05">
<path d="M1111.42 372L1025.42 372C970.193 372 925.422 327.229 925.422 272L925.422 186L1011.42 186C1066.65 186 1111.42 230.772 1111.42 286L1111.42 372Z" fill="#FEC247"/>
<path d="M739.422 372L825.422 372C880.65 372 925.422 327.229 925.422 272L925.422 186L839.422 186C784.193 186 739.422 230.772 739.422 286L739.422 372Z" fill="#6B5ACC"/>
<path d="M925.422 186L839.422 186C784.193 186 739.422 141.229 739.422 86.0002L739.422 0.000166845L825.422 0.000174363C880.65 0.000179191 925.422 44.7717 925.422 100L925.422 186Z" fill="#21C1F3"/>
<path d="M925.422 186L1011.42 186C1066.65 186 1111.42 141.229 1111.42 86.0002L1111.42 0.000199366L1025.42 0.000191848C970.193 0.00018702 925.422 44.7717 925.422 100L925.422 186Z" fill="#EE4F3C"/>
<path d="M1111.42 744L1025.42 744C970.193 744 925.422 699.229 925.422 644L925.422 558L1011.42 558C1066.65 558 1111.42 602.772 1111.42 658L1111.42 744Z" fill="#FEC247"/>
<path d="M739.422 744L825.422 744C880.65 744 925.422 699.229 925.422 644L925.422 558L839.422 558C784.193 558 739.422 602.772 739.422 658L739.422 744Z" fill="#6B5ACC"/>
<path d="M925.422 558L839.422 558C784.193 558 739.422 513.229 739.422 458L739.422 372L825.422 372C880.65 372 925.422 416.772 925.422 472L925.422 558Z" fill="#21C1F3"/>
<path d="M925.422 558L1011.42 558C1066.65 558 1111.42 513.229 1111.42 458L1111.42 372L1025.42 372C970.193 372 925.422 416.772 925.422 472L925.422 558Z" fill="#EE4F3C"/>
</g>
</svg>
