<svg width="322" height="285" viewBox="0 0 322 285" fill="none" xmlns="http://www.w3.org/2000/svg">
<path d="M322 -40L322 22.5C322 77.7285 277.228 122.5 222 122.5L159.5 122.5L159.5 60C159.5 4.77152 204.272 -40 259.5 -40L322 -40Z" fill="#FEC247"/>
<path d="M322 285L322 222.5C322 167.272 277.228 122.5 222 122.5L159.5 122.5L159.5 185C159.5 240.228 204.272 285 259.5 285L322 285Z" fill="#6B5ACC"/>
<path d="M159.5 122.5L159.5 185C159.5 240.228 114.728 285 59.5 285L-3.00001 285L-3 222.5C-3 167.272 41.7715 122.5 97 122.5L159.5 122.5Z" fill="#21C1F3"/>
<path d="M159.5 122.5L159.5 60C159.5 4.77153 114.728 -40 59.5 -40L-2.99999 -40L-3 22.5C-3 77.7285 41.7715 122.5 97 122.5L159.5 122.5Z" fill="#EE4F3C"/>
</svg>
