<svg width="1108" height="747" viewBox="0 0 1108 747" fill="none" xmlns="http://www.w3.org/2000/svg">
<g opacity="0.05">
<path d="M1108 372L1022 372C966.772 372 922 327.229 922 272L922 186L1008 186C1063.23 186 1108 230.772 1108 286L1108 372Z" fill="#FEC247"/>
<path d="M736 372L822 372C877.229 372 922 327.229 922 272L922 186L836 186C780.772 186 736 230.772 736 286L736 372Z" fill="#6B5ACC"/>
<path d="M922 186L836 186C780.772 186 736 141.229 736 86.0002L736 0.00022788L822 0.000235398C877.229 0.000240227 922 44.7718 922 100L922 186Z" fill="#21C1F3"/>
<path d="M922 186L1008 186C1063.23 186 1108 141.229 1108 86.0003L1108 0.000260401L1022 0.000252883C966.772 0.000248055 922 44.7718 922 100L922 186Z" fill="#EE4F3C"/>
<path d="M1108 744L1022 744C966.772 744 922 699.229 922 644L922 558L1008 558C1063.23 558 1108 602.772 1108 658L1108 744Z" fill="#FEC247"/>
<path d="M736 744L822 744C877.229 744 922 699.229 922 644L922 558L836 558C780.772 558 736 602.772 736 658L736 744Z" fill="#6B5ACC"/>
<path d="M922 558L836 558C780.772 558 736 513.229 736 458L736 372L822 372C877.229 372 922 416.772 922 472L922 558Z" fill="#21C1F3"/>
<path d="M922 558L1008 558C1063.23 558 1108 513.229 1108 458L1108 372L1022 372C966.772 372 922 416.772 922 472L922 558Z" fill="#EE4F3C"/>
</g>
<g opacity="0.05">
<path d="M372 375L286 375C230.772 375 186 330.228 186 275L186 189L272 189C327.228 189 372 233.772 372 289L372 375Z" fill="#FEC247"/>
<path d="M0 375L86 375C141.228 375 186 330.228 186 275L186 189L100 189C44.7715 189 1.23466e-05 233.772 7.51836e-06 289L0 375Z" fill="#6B5ACC"/>
<path d="M186 189L100 189C44.7715 189 3.91405e-06 144.228 8.74228e-06 89L1.62606e-05 2.99998L86 2.99999C141.228 3 186 47.7715 186 103L186 189Z" fill="#21C1F3"/>
<path d="M186 189L272 189C327.228 189 372 144.228 372 89L372 3.00002L286 3.00001C230.772 3 186 47.7715 186 103L186 189Z" fill="#EE4F3C"/>
<path d="M372 747L286 747C230.772 747 186 702.228 186 647L186 561L272 561C327.228 561 372 605.772 372 661L372 747Z" fill="#FEC247"/>
<path d="M0 747L86 747C141.228 747 186 702.228 186 647L186 561L100 561C44.7715 561 1.23466e-05 605.772 7.51836e-06 661L0 747Z" fill="#6B5ACC"/>
<path d="M186 561L100 561C44.7715 561 3.91405e-06 516.228 8.74228e-06 461L1.62606e-05 375L86 375C141.228 375 186 419.772 186 475L186 561Z" fill="#21C1F3"/>
<path d="M186 561L272 561C327.228 561 372 516.228 372 461L372 375L286 375C230.772 375 186 419.772 186 475L186 561Z" fill="#EE4F3C"/>
</g>
<g opacity="0.05">
<path d="M738.289 372L652.289 372C597.061 372 552.289 327.229 552.289 272L552.289 186L638.289 186C693.518 186 738.289 230.772 738.289 286L738.289 372Z" fill="#FEC247"/>
<path d="M366.289 372L452.289 372C507.518 372 552.289 327.229 552.289 272L552.289 186L466.289 186C411.061 186 366.289 230.772 366.289 286L366.289 372Z" fill="#6B5ACC"/>
<path d="M552.289 186L466.289 186C411.061 186 366.289 141.229 366.289 86.0001L366.289 0.00010581L452.289 0.000113328C507.518 0.000118156 552.289 44.7717 552.289 100L552.289 186Z" fill="#21C1F3"/>
<path d="M552.289 186L638.289 186C693.518 186 738.289 141.229 738.289 86.0001L738.289 0.000138331L652.289 0.000130813C597.061 0.000125984 552.289 44.7717 552.289 100L552.289 186Z" fill="#EE4F3C"/>
<path d="M738.289 744L652.289 744C597.061 744 552.289 699.229 552.289 644L552.289 558L638.289 558C693.518 558 738.289 602.772 738.289 658L738.289 744Z" fill="#FEC247"/>
<path d="M366.289 744L452.289 744C507.518 744 552.289 699.229 552.289 644L552.289 558L466.289 558C411.061 558 366.289 602.772 366.289 658L366.289 744Z" fill="#6B5ACC"/>
<path d="M552.289 558L466.289 558C411.061 558 366.289 513.229 366.289 458L366.289 372L452.289 372C507.518 372 552.289 416.772 552.289 472L552.289 558Z" fill="#21C1F3"/>
<path d="M552.289 558L638.289 558C693.518 558 738.289 513.229 738.289 458L738.289 372L652.289 372C597.061 372 552.289 416.772 552.289 472L552.289 558Z" fill="#EE4F3C"/>
</g>
</svg>
