<svg width="372" height="372" viewBox="0 0 372 372" fill="none" xmlns="http://www.w3.org/2000/svg">
<g opacity="0.05">
<path d="M372 372L286 372C230.772 372 186 327.229 186 272L186 186L272 186C327.229 186 372 230.772 372 286L372 372Z" fill="#FEC247"/>
<path d="M6.10352e-05 372L86.0001 372C141.229 372 186 327.229 186 272L186 186L100 186C44.7716 186 7.33817e-05 230.772 6.85535e-05 286L6.10352e-05 372Z" fill="#6B5ACC"/>
<path d="M186 186L100 186C44.7716 186 6.49492e-05 141.229 6.97774e-05 86.0002L7.72958e-05 0.000166845L86.0001 0.000174363C141.229 0.000179191 186 44.7717 186 100L186 186Z" fill="#21C1F3"/>
<path d="M186 186L272 186C327.229 186 372 141.229 372 86.0002L372 0.000199366L286 0.000191848C230.772 0.00018702 186 44.7717 186 100L186 186Z" fill="#EE4F3C"/>
</g>
</svg>
